<svg xmlns="http://www.w3.org/2000/svg" viewBox="0 0 534.1 276.17"><g><path fill="#fff" d="M0 276.17V.16L465.6 0l68.5 123.65-115 120.25L0 276.17z"/><g><path d="M97.25 156.81H101V170h.09a7.82 7.82 0 0 1 7.18-3.83c5.27 0 8.92 4.35 8.92 10.71 0 7.53-4.79 11.28-9.49 11.28a7.66 7.66 0 0 1-7.1-3.92h-.09l-.22 3.44h-3.22c.09-1.44.17-3.57.17-5.44zm3.75 22.46a4.89 4.89 0 0 0 .17 1.39 5.87 5.87 0 0 0 5.75 4.48c4 0 6.4-3.26 6.4-8.1 0-4.22-2.18-7.84-6.31-7.84a6.15 6.15 0 0 0-5.79 4.7 6 6 0 0 0-.22 1.61zM125.63 177.88c.09 5.18 3.35 7.31 7.23 7.31a13.7 13.7 0 0 0 5.83-1.09l.7 2.74a17.16 17.16 0 0 1-7.05 1.35c-6.49 0-10.36-4.31-10.36-10.67s3.74-11.32 9.88-11.32c6.92 0 8.71 6 8.71 9.88a9.39 9.39 0 0 1-.13 1.79zm11.23-2.74c0-2.39-1-6.18-5.31-6.18-3.92 0-5.57 3.53-5.88 6.18zM157.48 173.22c0-2.48 0-4.61-.17-6.58h3.35l.17 4.18h.17a6.37 6.37 0 0 1 5.88-4.61 8 8 0 0 1 1 .09v3.61a6 6 0 0 0-1.31-.09c-2.7 0-4.61 2-5.14 4.88a11.53 11.53 0 0 0-.13 1.79v11.23h-3.83zM174.89 177.88c.09 5.18 3.35 7.31 7.23 7.31a13.7 13.7 0 0 0 5.88-1.09l.7 2.74a17.16 17.16 0 0 1-7.05 1.35c-6.49 0-10.36-4.31-10.36-10.67s3.74-11.32 9.88-11.32c6.92 0 8.71 6 8.71 9.88a9.39 9.39 0 0 1-.13 1.79zm11.23-2.74c0-2.39-1-6.18-5.31-6.18-3.92 0-5.57 3.53-5.88 6.18zM211.06 187a14.8 14.8 0 0 1-6.06 1.2c-6.36 0-10.49-4.31-10.49-10.75s4.44-11.23 11.32-11.23a12.06 12.06 0 0 1 5.31 1.13l-.87 2.92a9.4 9.4 0 0 0-4.44-1c-4.83 0-7.45 3.61-7.45 8 0 4.88 3.14 7.88 7.31 7.88a11 11 0 0 0 4.7-1zM235.83 177c0 7.79-5.44 11.19-10.49 11.19-5.66 0-10.1-4.18-10.1-10.84 0-7 4.66-11.14 10.45-11.14 6.05 0 10.14 4.4 10.14 10.79zm-16.67.22c0 4.62 2.61 8.1 6.36 8.1s6.4-3.44 6.4-8.19c0-3.57-1.79-8.05-6.31-8.05s-6.45 4.18-6.45 8.14zM260.16 184.63c0 4.88-1 7.79-3 9.66a11.57 11.57 0 0 1-7.71 2.53 13.61 13.61 0 0 1-7-1.74l1-3a11.46 11.46 0 0 0 6.18 1.7c3.92 0 6.79-2 6.79-7.4v-2.28h-.09a7.47 7.47 0 0 1-6.7 3.53c-5.23 0-9-4.44-9-10.27 0-7.14 4.66-11.14 9.53-11.14a7 7 0 0 1 6.57 3.61h.09l.13-3.18h3.4c-.13 1.48-.17 3.22-.17 5.75zm-3.83-9.63a5 5 0 0 0-.22-1.7 5.47 5.47 0 0 0-5.35-4.09c-3.66 0-6.27 3.09-6.27 8 0 4.14 2.13 7.58 6.23 7.58a5.52 5.52 0 0 0 5.31-3.92 6.69 6.69 0 0 0 .3-2zM267.68 172.35c0-2.22 0-4-.17-5.7h3.39l.22 3.48h.09a7.8 7.8 0 0 1 7-3.92c2.92 0 7.44 1.74 7.44 9v12.54h-3.83v-12.18c0-3.4-1.26-6.23-4.88-6.23a5.62 5.62 0 0 0-5.4 5.7v12.67h-3.83zM297.59 160.72a2.29 2.29 0 0 1-2.44 2.35 2.25 2.25 0 0 1-2.31-2.35 2.33 2.33 0 0 1 2.39-2.39 2.3 2.3 0 0 1 2.36 2.39zm-4.27 27v-21.08h3.83v21.07zM302.59 185.5l9.49-12.41c1-1.18 1.83-2.18 2.79-3.31v-.09h-11.41v-3h16V169l-9.4 12.23c-.91 1.18-1.74 2.26-2.7 3.31v.09h12.28v3h-17.05zM326.92 177.88c.09 5.18 3.35 7.31 7.23 7.31a13.7 13.7 0 0 0 5.85-1.09l.7 2.74a17.16 17.16 0 0 1-7.05 1.35c-6.49 0-10.36-4.31-10.36-10.67s3.74-11.32 9.88-11.32c6.92 0 8.71 6 8.71 9.88a9.39 9.39 0 0 1-.13 1.79zm11.23-2.74c0-2.39-1-6.18-5.31-6.18-3.92 0-5.57 3.53-5.88 6.18zM366.23 156.81v25.47c0 1.87.09 4 .17 5.44H363l-.17-3.66h-.13a7.61 7.61 0 0 1-7.1 4.14c-5.09 0-9.05-4.31-9.05-10.71 0-7 4.35-11.28 9.45-11.28 3.27 0 5.4 1.52 6.36 3.18h.09v-12.58zm-3.79 18.41a6.78 6.78 0 0 0-.17-1.61 5.64 5.64 0 0 0-5.53-4.4c-4 0-6.31 3.48-6.31 8.1 0 4.27 2.13 7.79 6.23 7.79a5.81 5.81 0 0 0 5.62-4.57 6.66 6.66 0 0 0 .17-1.65z" fill="#909090"/><path d="M402 85.56a14 14 0 0 1-1-2.81q-.39-1.47-.57-2.62t-.25-1.49a6.86 6.86 0 0 0-.3-1.42 4 4 0 0 0-1.29-1.92 6.37 6.37 0 0 0-.7-.47 14.35 14.35 0 0 0 1.4-.76 5.17 5.17 0 0 0 1.57-1.53 5 5 0 0 0 .75-2.74 5.75 5.75 0 0 0-.29-1.85 5.53 5.53 0 0 0-.89-1.63 4.7 4.7 0 0 0-2-1.59 11 11 0 0 0-3.77-.67H385v21.5h5.17v-9h.89q.72 0 1.44.08a2.56 2.56 0 0 1 1.33.54 2 2 0 0 1 .62 1q.18.65.37 1.76.22 1.48.44 2.85a11.47 11.47 0 0 0 .83 2.75zm-11.81-13.12V68h3.25a5 5 0 0 1 1.79.25 1.82 1.82 0 0 1 .94.78 2.33 2.33 0 0 1 .23.65 2.58 2.58 0 0 1 .05.44 2.61 2.61 0 0 1-.13.79 1.91 1.91 0 0 1-.2.44 1.82 1.82 0 0 1-1.26 1 10.85 10.85 0 0 1-2.36.14zm19.43 2.63a16.8 16.8 0 0 0-.77-5.32 16.16 16.16 0 0 0-2.48-4.75 16.53 16.53 0 0 0-6-5 16.87 16.87 0 0 0-7.5-1.72 17.06 17.06 0 0 0-6.13 1.1 16.58 16.58 0 0 0-4.29 2.43 17.81 17.81 0 0 0-2.56 2.45 16.29 16.29 0 0 0-2.42 3.89 17.51 17.51 0 0 0-.19 13.22 16.53 16.53 0 0 0 2.72 4.35 17.52 17.52 0 0 0 2.65 2.57 16.86 16.86 0 0 0 4.83 2.54 17.11 17.11 0 0 0 13.43-1.13 16.06 16.06 0 0 0 4.75-3.86 16.58 16.58 0 0 0 3.34-6.2 16.8 16.8 0 0 0 .61-4.57zm-1.5 0a15.44 15.44 0 0 1-2.76 8.74 15 15 0 0 1-7.36 5.51 16.42 16.42 0 0 1-3.08.75 14.92 14.92 0 0 1-2.05.15 15.41 15.41 0 0 1-8.54-2.58 15.21 15.21 0 0 1-6.7-12.64 15.19 15.19 0 0 1 6.26-12.32 14.72 14.72 0 0 1 5.27-2.47 15.79 15.79 0 0 1 3.76-.45 15.23 15.23 0 0 1 5.89 1.14 14.83 14.83 0 0 1 4 2.5 15.84 15.84 0 0 1 2.32 2.48 15.18 15.18 0 0 1 2.51 5.36 16 16 0 0 1 .47 3.76z" fill="#3a61a0" fill-rule="evenodd"/><path d="M97.81 58.23h21.56c16.54 0 27.95 5.36 27.95 20.08 0 11-6.39 16.43-16.43 18.94v.23c10.84.91 18.48 8 18.48 19.16 0 17.11-14.15 21.22-30.34 21.22H97.81zm11.41 34h6.27c11.06 0 20.42-1 20.42-12.78 0-9.47-8.1-11.86-14.71-11.86h-12zm0 36.27h8.56c10.27 0 19.51-2.17 19.51-12.89 0-12.32-10.84-14-20.65-14h-7.41zM173.7 69H163V58.23h10.7zm-10.88 10.68h10.72v58.18h-10.72zM215.52 78.31c17.68 0 29.54 12.78 29.54 30.46 0 16.65-12.09 30.46-29.54 30.46s-29.66-13.8-29.66-30.46c0-17.69 11.87-30.46 29.66-30.46zm0 52.24c12.55 0 18.14-11.41 18.14-21.79 0-11.07-6.73-21.79-18.14-21.79s-18.25 10.72-18.25 21.79c0 10.39 5.59 21.79 18.25 21.79z" fill="#3a61a0"/><path d="M255.33 58.23h21.22v79.62h-21.22zM290.69 58.23h29c27.72 0 47.11 8.67 47.11 39.47 0 29.77-20 40.15-47.11 40.15h-29zm21.22 63.88h8.21c15.86 0 24.75-8.21 24.75-24.07S335.63 74 320.12 74h-8.21z" fill="#909090"/></g></g></svg>