<?xml version="1.0" encoding="UTF-8"?><svg id="Janssen_white_icon" xmlns="http://www.w3.org/2000/svg" viewBox="0 0 367.67 398.59"><defs><style>.cls-1{fill:#fff;}</style></defs><g id="Layer_10"><path class="cls-1" d="M367.67,372.59c-3.71,13.56-13.94,17.33-25.59,19.19-42.47,6.76-85.1,9.05-127.93,4.28-35.9-4-70.5-12.58-102.06-30.96-26.59-15.48-47.11-36.76-61.18-64.23-10.98-21.43-22.66-23.76-40.84-7.83-3.49,3.06-4.51,1.99-6.48-.91-8.51-12.53-.75-56.09,11.75-64.5,5.65-3.81,12.16-5,18.88-4.03,6.86,.99,13.75,2.04,20.48,3.66,18.32,4.4,18.2,4.54,15.16-14.9C59.35,145.18,44.78,78.8,29.82,12.5c-.78-3.46-1.3-6.99-2.31-12.5,28.39,20.9,52.79,43.2,74.78,68.21,22.03,25.06,41.18,52.13,56.73,81.98C212.23,86.73,269.33,30.02,357.4,13.17c-15.34,21.35-28.19,41.17-39.52,61.94-23.68,43.42-43.57,88.56-58.17,135.73-9.77,31.56-10.67,64.12-.34,96.15,7.65,23.69,23.11,40.27,46.61,49.04,19.87,7.42,39.83,14.48,61.68,16.55ZM309.34,48.42c-77.99,35.3-133.06,92.62-164.47,172.24-10.55,26.73-32.48,39.74-60.78,33.7-10.33-2.2-20.38-5.72-30.61-8.42-7.05-1.87-14.1-4.22-21.54-3.61-9.88,.82-12.43,13.08-13.47,19.99-1.14,7.57,6.85,2.12,11.74,2.71,17.35,2.11,29.77,11.77,37.58,27.02,14.07,27.45,35.74,46.8,62.86,60.63,35.88,18.29,74.59,25.16,114.23,27.71,15.33,.98,30.78,.16,46.48,.16-.99-3.63-2.96-4.57-4.86-5.68-39.76-23.15-53.15-61.04-54.71-103.6-1.06-28.87,5.87-57.29,14.43-85.04,14.98-48.58,38.63-92.92,65.73-135.61,.61-1.07,1.73-3.08,1.73-3.08,0,0-.93-.18-4.34,.89Zm-248.49,3.13c-.65,.37-1.3,.74-1.95,1.1,2.41,11.32,4.83,22.63,7.22,33.95,9.88,46.83,17.17,94.11,23.59,141.51,.79,5.85,2.37,7.91,8.4,8.1,15.08,.47,24.43-6.32,31.26-23.85,4.1-10.53,7.5-21.43,12.59-31.46,4.5-8.87,3.73-16.36-.65-24.77-12.93-24.85-30.28-46.51-48.14-67.8-10.49-12.5-21.53-24.54-32.32-36.78Z"/></g></svg>