<?xml version="1.0" encoding="utf-8"?>
<!-- Generator: Adobe Illustrator 26.2.1, SVG Export Plug-In . SVG Version: 6.00 Build 0)  -->
<svg version="1.1" id="Layer_1" xmlns="http://www.w3.org/2000/svg" xmlns:xlink="http://www.w3.org/1999/xlink" x="0px" y="0px"
	 viewBox="0 0 1000 328.9" style="enable-background:new 0 0 1000 328.9;" xml:space="preserve">
<style type="text/css">
	.st0{fill:#003778;}
	.st1{fill:#003764;}
	.st2{fill:#0094FF;}
</style>
<g>
	<g>
		<path class="st0" d="M384.2,1.2h57.7v5.9h-25.4V74h-6.9V7.2h-25.4L384.2,1.2L384.2,1.2z"/>
		<path class="st0" d="M448.7,1.2h6.9v31.6h43.2V1.2h6.9V74h-6.9V38.8h-43.2V74h-6.9V1.2z"/>
		<path class="st0" d="M520.5,1.2h50.3v5.9h-43.3v26.3H568v5.9h-40.6V68h43.8v6h-50.8L520.5,1.2L520.5,1.2z"/>
	</g>
	<g>
		<path class="st0" d="M384.2,254.6h46.2v5.9h-39.2v26.3H426v5.9h-34.9v34.7h-6.9V254.6z"/>
		<path class="st0" d="M469.4,253.1c22.8,0,34.2,17.9,34.2,37.9s-11.4,37.9-34.2,37.9c-22.9,0-34.4-17.9-34.4-37.9
			S446.4,253.1,469.4,253.1z M469.4,323c19.2,0,27.3-16.1,27.3-32s-8.2-32-27.3-32c-19.3,0-27.4,16.1-27.4,32S450.1,323,469.4,323z"
			/>
		<path class="st0" d="M513.7,254.6h6.9v45.1c0,16.8,7.8,23.3,21.3,23.3c13.6,0,21.4-6.5,21.4-23.3v-45.1h6.9v46.6
			c0,15-8.1,27.7-28.3,27.7c-20.1,0-28.2-12.7-28.2-27.7L513.7,254.6L513.7,254.6z"/>
		<path class="st0" d="M584.2,254.6h7.7l42.4,61.6h0.2v-61.6h6.9v72.8h-7.7l-42.4-61.6h-0.2v61.6h-6.9V254.6z"/>
		<path class="st0" d="M656.1,254.6h25.2c22,0.5,33.4,12.3,33.4,36.4s-11.4,35.9-33.4,36.4h-25.2V254.6z M663,321.5h14.8
			c20.9,0,30-8.7,30-30.5s-9.1-30.5-30-30.5H663V321.5z"/>
		<path class="st0" d="M747.2,254.6h7.7l28.5,72.8H776l-8.9-22.6H734l-8.8,22.6h-7.4L747.2,254.6z M736.2,298.9h28.6l-14.1-37.3
			L736.2,298.9z"/>
		<path class="st0" d="M775.3,254.6H833v5.9h-25.4v66.9h-6.9v-66.9h-25.4L775.3,254.6L775.3,254.6z"/>
		<path class="st0" d="M840.4,254.6h6.9v72.8h-6.9V254.6z"/>
		<path class="st0" d="M893,253.1c22.8,0,34.2,17.9,34.2,37.9s-11.4,37.9-34.2,37.9c-22.9,0-34.4-17.9-34.4-37.9
			S870,253.1,893,253.1z M893,323c19.2,0,27.3-16.1,27.3-32s-8.2-32-27.3-32c-19.3,0-27.4,16.1-27.4,32S873.7,323,893,323z"/>
		<path class="st1" d="M937.9,254.6h7.7l42.4,61.6h0.2v-61.6h6.9v72.8h-7.7L945,265.8h-0.2v61.6h-6.9V254.6z"/>
	</g>
	<g>
		<path class="st0" d="M384.2,95.7h40.1v96.8h57.6v33.4h-97.8L384.2,95.7L384.2,95.7z"/>
		<path class="st0" d="M508.2,95.7h40.1v130.2h-40.1L508.2,95.7L508.2,95.7z"/>
		<path class="st0" d="M578.2,95.7h41l37.9,69.7h0.4V95.7h37.9v130.2h-39l-39.9-71.1h-0.4v71.1h-37.9V95.7z"/>
		<path class="st0" d="M843.7,175.6c0,36.3-19.1,53.4-59.3,53.4c-40.1,0-59.5-17.1-59.5-53.4V95.7H765v70.9
			c0,13.1-0.2,29.9,19.5,29.9c19,0,19-16.8,19-29.9V95.7h40.1v79.9H843.7z"/>
		<path class="st0" d="M907.5,156.6l-42.9-60.9h47.1l19.7,35.4l19.3-35.4h44.5L953.5,157l46.5,68.9h-48.3l-22.2-38.8l-23,38.8h-46
			L907.5,156.6z"/>
	</g>
	<g>
		<polygon class="st2" points="65.6,261.9 65.6,131 0,131 0,327.4 196.5,327.4 196.5,261.9 		"/>
		<polygon class="st0" points="327.3,0 0,0 0,98.2 65.5,98.2 65.5,65.8 261.9,65.8 261.9,261.9 229.2,261.9 229.2,327.4 
			327.3,327.4 		"/>
	</g>
</g>
</svg>
